<svg width="149" height="55" viewBox="0 0 149 55" fill="none" xmlns="http://www.w3.org/2000/svg">
<path d="M22.0719 17.0988H21.2032V13.0203H10.9997V12.2547H16.153V10.1639H10.1899V9.3836H21.1001V4.73093H11.2206V3.96531H21.9983V9.3836H22.9995V10.1639H17.0364V12.2547H22.0719V17.0988ZM35.6687 3.7739V17.084H34.8V10.0903H32.4884V16.8485H31.6197V3.89169H32.4884V9.30998H34.8V3.7739H35.6687ZM24.9646 3.96531V15.9798H30.3829V16.7749H24.0812V3.96531H24.9646ZM45.0664 7.79345C45.0664 8.35294 45.1547 8.86827 45.3609 9.33943C45.5375 9.81058 45.8026 10.2376 46.1265 10.6204C46.4357 11.0032 46.8038 11.3418 47.216 11.6216C47.6136 11.9161 48.0258 12.1664 48.4675 12.343L47.9817 13.0498C47.6872 12.932 47.3927 12.7848 47.0983 12.5786C46.7743 12.4019 46.4799 12.1664 46.1854 11.9013C45.8762 11.6363 45.5964 11.3271 45.3314 10.9737C45.0664 10.6351 44.8308 10.2523 44.6541 9.81058C44.286 10.6498 43.7854 11.3566 43.1523 11.9308C42.5045 12.5197 41.8272 12.9762 41.091 13.3148L40.6199 12.667C41.1499 12.4167 41.6211 12.1222 42.0628 11.7835C42.4898 11.4596 42.8579 11.0768 43.1818 10.6646C43.491 10.267 43.7413 9.82531 43.918 9.35415C44.0799 8.88299 44.1683 8.38239 44.1683 7.85234V6.80696H40.9732V6.01189H48.2467V6.80696H45.0664V7.79345ZM51.854 3.7739V17.0399H50.9853V3.7739H51.854ZM50.308 16.2301C49.5424 16.3184 48.7326 16.392 47.8639 16.4657C46.9805 16.5246 46.097 16.5687 45.2136 16.6276C44.3008 16.6571 43.4173 16.7012 42.5487 16.7307C41.6652 16.7454 40.8554 16.7601 40.1045 16.7749L39.9867 16.0092C40.6346 15.9798 41.3119 15.9651 42.0333 15.9651C42.7401 15.9356 43.4762 15.9209 44.2271 15.8914V13.1087H45.1106V15.862C45.994 15.8178 46.8774 15.7736 47.7461 15.7148C48.6001 15.6559 49.4099 15.5822 50.1902 15.4939L50.308 16.2301ZM42.5928 3.81807H46.6271V4.61314H42.5928V3.81807ZM65.4213 3.7739V17.084H64.5526V10.0903H62.241V16.8485H61.3723V3.89169H62.241V9.30998H64.5526V3.7739H65.4213ZM54.7173 15.9798H60.2533V16.7749H53.8338V3.96531H59.8264V4.76038H54.7173V15.9798ZM82.5048 10.3554V11.1357H69.6952V10.3554H75.6583V8.64742H70.6522V3.96531H81.5772V4.74566H71.5357V7.88179H81.6655V8.64742H76.5417V10.3554H82.5048ZM70.505 12.5492H81.5772V17.0988H80.7085V13.3148H70.505V12.5492ZM90.536 16.7601C90.1827 16.554 89.844 16.3037 89.5054 16.0387C89.152 15.7442 88.8134 15.435 88.5042 15.0816C88.1803 14.7283 87.9005 14.3455 87.6502 13.9185C87.3852 13.5062 87.179 13.0645 87.0318 12.5786C86.8699 13.0792 86.6637 13.5357 86.3987 13.9479C86.1337 14.3896 85.8392 14.7872 85.5153 15.1553C85.1914 15.5086 84.838 15.8473 84.4846 16.1417C84.1165 16.4362 83.7632 16.6865 83.4098 16.9074L82.8503 16.2743C83.4098 15.9209 83.9251 15.5381 84.3963 15.0964C84.8527 14.6547 85.2503 14.1835 85.5742 13.6534C85.8981 13.1528 86.1484 12.6081 86.3251 12.0191C86.5018 11.4449 86.5901 10.856 86.5901 10.2376V3.89169H87.4882V10.2376C87.4882 11.5332 87.7974 12.6522 88.4158 13.6093C89.0342 14.581 89.9176 15.4056 91.0808 16.1123L90.536 16.7601ZM94.8648 17.0399H93.9961V10.0903H90.1238V9.29526H93.9961V3.7739H94.8648V17.0399ZM110.461 12.8584H100.405V12.078H111.33V14.9344H101.288V16.2595H111.624V17.0399H100.405V14.154H110.461V12.8584ZM102.496 5.40822L103.335 5.37877L103.674 8.14681H108.061L108.4 5.36405L109.239 5.40822L108.915 8.14681H111.477V8.92717H100.258V8.14681H102.834L102.496 5.40822ZM112.257 10.9443H99.4478V10.1639H112.257V10.9443ZM111.33 4.74566H100.405V3.96531H111.33V4.74566ZM118.154 6.93948V4.76038H113.324V3.96531H119.052V7.73455H114.237V9.8842H119.935V10.6646H113.354V6.93948H118.154ZM124.912 3.7739V12.1369H124.043V7.58732H121.746V11.2535H120.878V3.87696H121.746V6.80696H124.043V3.7739H124.912ZM124.986 17.1577C124.455 17.084 123.911 16.981 123.381 16.8337C122.821 16.6718 122.306 16.4804 121.835 16.2595C121.334 16.0239 120.892 15.7442 120.51 15.435C120.112 15.1111 119.803 14.7724 119.597 14.3749C119.391 14.7724 119.096 15.1111 118.713 15.435C118.316 15.7442 117.874 16.0239 117.388 16.2595C116.888 16.4804 116.372 16.6718 115.827 16.8337C115.268 16.981 114.738 17.084 114.223 17.1577L113.884 16.4362C114.488 16.3479 115.106 16.2301 115.739 16.0534C116.357 15.862 116.932 15.6264 117.447 15.3319C117.948 15.0375 118.36 14.6841 118.684 14.2718C119.008 13.8596 119.17 13.3884 119.17 12.8289V12.1222H120.038V12.8289C120.038 13.3884 120.2 13.8596 120.524 14.2718C120.848 14.6841 121.26 15.0375 121.776 15.3319C122.276 15.6264 122.836 15.862 123.469 16.0534C124.087 16.2301 124.706 16.3479 125.324 16.4362L124.986 17.1577ZM137.846 17.0399H126.921V12.8436H137.846V17.0399ZM138.774 11.4302H125.964V10.6498H131.927V9.0744H126.774V8.29405H129.365L129.012 5.40822L129.851 5.37877L130.205 8.29405H134.563L134.916 5.36405L135.755 5.40822L135.417 8.29405H137.993V9.0744H132.811V10.6498H138.774V11.4302ZM136.963 16.2743V13.624H127.805V16.2743H136.963ZM137.846 4.74566H126.921V3.96531H137.846V4.74566Z" fill="#343434"/>
<path fill-rule="evenodd" clip-rule="evenodd" d="M6.83454 45.0462C6.82629 45.0627 6.81805 45.0791 6.81255 45.0955C6.6806 45.391 6.53765 45.5442 6.4277 45.6427C5.71297 46.1242 5.21816 45.9601 5.21816 45.9601L5.07521 45.4676C4.70135 44.2966 4.49243 43.049 4.49243 41.7467C4.49243 34.9397 10.0453 29.4131 16.8847 29.4131C21.6349 29.4131 25.7693 32.0834 27.8366 36.0012C27.3258 36.2717 26.9303 36.7378 26.618 37.3227C25.8866 38.6925 25.6115 40.7136 25.3823 42.3984C25.1509 44.0988 24.9661 45.4566 24.4059 45.4566C24.2519 45.4566 24.12 45.3472 24.01 45.1502C23.8974 44.9189 23.8075 44.5894 23.7283 44.191C23.6295 43.6945 23.5473 43.091 23.4583 42.4373C23.2522 40.9239 23.0094 39.1417 22.4399 37.7962C22.0011 36.7598 21.3685 35.9824 20.4094 35.7866C20.0329 35.7097 19.5903 35.7175 19.1893 35.8419C18.2061 36.147 17.5929 37.0973 17.1821 38.2889C16.7476 39.5495 16.5397 41.0803 16.36 42.403C16.131 44.0886 15.9479 45.4363 15.4003 45.4566C15.2098 45.4493 15.0634 45.2823 14.9438 44.997C14.7184 44.4594 14.5883 43.5016 14.4387 42.3998C14.3706 41.8987 14.2985 41.3678 14.2116 40.8331C13.9446 39.1917 13.5378 37.5142 12.6784 36.5522C12.0327 35.8294 11.1053 35.5525 10.1741 35.8419C9.68765 35.9931 9.2917 36.3028 8.96595 36.7219C7.93568 38.0476 7.60776 40.4687 7.34135 42.4357C7.19609 43.5082 7.06911 44.4457 6.85653 44.997C6.85103 45.0134 6.84279 45.0298 6.83454 45.0462ZM27.9564 41.5374C28.1791 39.9662 28.3586 38.6996 28.8701 38.6059C29.134 39.6018 29.2769 40.6634 29.2879 41.7468C29.2879 48.5538 23.735 54.0804 16.8956 54.0804C12.3104 54.0804 8.3079 51.6071 6.16372 47.9191C6.21869 47.93 6.28465 47.93 6.37259 47.93H6.37264C9.00336 47.93 9.52063 44.2683 9.90724 41.5316C10.0755 40.3407 10.219 39.3249 10.5011 38.8623C10.7064 38.5256 11.0554 38.5256 11.2607 38.8623C11.5429 39.3249 11.6864 40.3407 11.8546 41.5316C12.1244 43.4415 12.4579 45.8019 13.5289 47.0539C13.9925 47.5958 14.5944 47.93 15.3892 47.93H15.4002H15.4112H15.4222C16.2554 47.93 16.8768 47.5629 17.3493 46.9743C17.7761 46.4426 18.0813 45.7302 18.3114 44.9444C18.6313 43.8517 18.8059 42.6171 18.9598 41.5289C19.0284 41.044 19.0929 40.5882 19.1643 40.1869C19.3312 39.2487 19.5359 38.6092 19.9195 38.595C20.103 38.6005 20.2456 38.7494 20.3627 39.006C20.5951 39.5152 20.7271 40.4485 20.8794 41.5257C21.2127 43.8831 21.6435 46.9298 23.4375 47.7303C24.1281 48.0385 24.961 48.0005 25.6145 47.6206C26.0997 47.3385 26.476 46.8798 26.7737 46.3148C27.055 45.7809 27.2661 45.152 27.4327 44.4876C27.6755 43.5186 27.8236 42.4739 27.9564 41.5374Z" fill="#343434"/>
<path d="M48.7534 41.4712H37.5531V31.5365H48.7534V41.4712ZM46.6691 39.7622V33.2454H39.6374V39.7622H46.6691ZM55.808 31.2402V42.2687H53.7237V31.2402H55.808ZM53.7237 45.1169H38.4693V43.408H55.808V48.5804H40.5765V50.4261H56.2661V52.135H38.4693V46.8714H53.7237V45.1169Z" fill="#343434"/>
<path d="M76.3363 31.2402V52.135H74.252V31.2402H76.3363ZM58.0815 40.6053H67.1516V33.3138H58.0356V31.5365H69.2818V42.3826H60.1887V49.9931H70.427V51.7249H58.0815V40.6053Z" fill="#343434"/>
<path d="M96.8647 31.2402V52.135H94.7804V31.2402H96.8647ZM93.91 50.9729C92.719 51.0869 91.4363 51.2008 90.1079 51.2919L86.0309 51.497C84.6337 51.5426 83.2594 51.6109 81.9081 51.6565C80.5338 51.6793 79.2282 51.7021 77.9914 51.7249L77.7165 49.9931C78.9534 49.9703 80.2589 49.9476 81.6332 49.9248C82.9846 49.8792 84.3588 49.8564 85.756 49.8108L89.833 49.6058C91.1615 49.5146 92.4441 49.4007 93.6352 49.2868L93.91 50.9729ZM91.4134 39.7166C91.4134 41.699 90.8637 43.1573 89.8101 44.0688C88.7336 45.003 87.2448 45.4587 85.3666 45.4587C83.4656 45.4587 81.9768 45.003 80.9232 44.0688C79.8237 43.1573 79.2969 41.7218 79.2969 39.7394V37.0279C79.2969 35.0683 79.8237 33.61 80.9232 32.6758C81.9768 31.7643 83.4656 31.3086 85.3666 31.3086C87.2448 31.3086 88.7336 31.7871 89.8101 32.6985C90.8637 33.6328 91.4134 35.0911 91.4134 37.0507V39.7166ZM81.4042 39.7394C81.4042 40.5141 81.4958 41.1294 81.7019 41.6079C81.8852 42.1092 82.1829 42.5193 82.5494 42.7927C82.893 43.1118 83.3052 43.3168 83.8091 43.4308C84.2672 43.5675 84.794 43.613 85.3666 43.613C85.9163 43.613 86.4432 43.5675 86.947 43.4308C87.4051 43.3168 87.8174 43.1118 88.1839 42.7927C88.5275 42.5193 88.8023 42.1092 89.0085 41.6079C89.1917 41.1294 89.3062 40.5141 89.3062 39.7394V37.0279C89.3062 36.2987 89.1917 35.6607 89.0085 35.1594C88.8023 34.6581 88.5275 34.2708 88.1839 33.9518C87.8174 33.6783 87.4051 33.4733 86.947 33.3365C86.4432 33.2226 85.9163 33.1543 85.3666 33.1543C84.794 33.1543 84.2672 33.2226 83.8091 33.3365C83.3052 33.4733 82.893 33.6783 82.5494 33.9518C82.1829 34.2708 81.8852 34.6581 81.7019 35.1594C81.4958 35.6607 81.4042 36.2987 81.4042 37.0279V39.7394Z" fill="#343434"/>
<path d="M115.07 51.7477C114.521 51.3831 113.994 50.9957 113.467 50.5628C112.917 50.1071 112.436 49.6058 111.978 49.1045C111.497 48.5804 111.062 48.0107 110.696 47.4183C110.306 46.8487 110.009 46.2562 109.779 45.6182C109.55 46.2562 109.23 46.8942 108.84 47.4867C108.428 48.1019 107.993 48.6715 107.512 49.2184C107.008 49.7653 106.481 50.2666 105.932 50.7451C105.359 51.2008 104.809 51.6109 104.282 51.9755L103.023 50.5628C103.847 50.0387 104.626 49.4463 105.336 48.7855C106.023 48.1019 106.642 47.3727 107.145 46.5524C107.649 45.7777 108.039 44.9346 108.314 44.0232C108.588 43.1573 108.726 42.2231 108.726 41.2661V31.4225H110.856V41.2661C110.856 43.2257 111.337 44.9802 112.345 46.4841C113.307 48.0107 114.635 49.2868 116.33 50.3349L115.07 51.7477ZM122.331 52.135H120.247V41.4712H114.818V39.6938H120.247V31.2402H122.331V52.135Z" fill="#343434"/>
<path d="M143.34 31.2402V52.135H141.302V41.4712H138.324V51.8388H136.309V31.4225H138.324V39.7166H141.302V31.2402H143.34ZM130.239 41.7218C130.239 42.5877 130.308 43.4308 130.468 44.2283C130.606 45.0486 130.858 45.8005 131.224 46.5069C131.545 47.236 132.003 47.9196 132.552 48.5348C133.102 49.15 133.766 49.7197 134.568 50.2438L133.492 51.7021C133.125 51.497 132.759 51.2236 132.346 50.8818C131.934 50.5172 131.522 50.0843 131.132 49.6286C130.72 49.15 130.377 48.6488 130.056 48.0791C129.712 47.5322 129.437 46.9398 129.254 46.3018C129.071 46.9398 128.819 47.5322 128.498 48.1019C128.178 48.6715 127.811 49.2184 127.422 49.7197C127.01 50.1982 126.597 50.6311 126.162 51.0413C125.704 51.4059 125.246 51.7249 124.834 51.9755L123.666 50.5856C125.269 49.583 126.437 48.3297 127.147 46.8031C127.834 45.2992 128.201 43.613 128.201 41.7674V33.3138H124.238V31.5365H134.202V33.3138H130.239V41.7218Z" fill="#343434"/>
</svg>
